<svg xmlns="http://www.w3.org/2000/svg" viewBox="0 0 400 400" enable-background="new 0 0 400 400"><path fill="#8C181B" d="M126.5 224.5v49h147v-147h-48.9L171.9 172z"/><path fill="#751A14" d="M273.5 273.5h-147v-49l45.4 3.6z"/><path fill="#D03F4B" d="M228.1 172l-3.5-45.5h48.9v147z"/><path fill="#A72524" d="M273.5 273.5l-101.6-45.4V172h56.2z"/><path fill="#BE1E2D" d="M126.5 273.5h147v-147z"/><path fill="#601710" d="M126.5 273.5h147l-101.6-45.4z"/><path fill="#791515" d="M228 172l-56.1 56.1 101.6 45.4L228.1 172z"/><path fill="#A32727" d="M228.1 172l45.4 101.5v-147z"/><g opacity=".6"><path fill="#8C181B" d="M126.5 224.5v49h147v-147h-48.9L171.9 172z"/><linearGradient id="a" gradientUnits="userSpaceOnUse" x1="165.05" y1="253.173" x2="98.05" y2="261.173"><stop offset="0" stop-color="#B32025"/><stop offset="1" stop-color="#2C0F0F"/></linearGradient><path fill="url(#a)" d="M273.5 273.5h-147v-49l45.4 3.6z"/><linearGradient id="b" gradientUnits="userSpaceOnUse" x1="224.585" y1="200.004" x2="273.494" y2="200.004"><stop offset="0" stop-color="#D13C49"/><stop offset="1" stop-color="#D84F56"/></linearGradient><path fill="url(#b)" d="M228.1 172l-3.5-45.5h48.9v147z"/><linearGradient id="c" gradientUnits="userSpaceOnUse" x1="224.903" y1="164.633" x2="221.903" y2="243.633"><stop offset="0" stop-color="#DA1F27"/><stop offset="1" stop-color="#650819"/></linearGradient><path fill="url(#c)" d="M273.5 273.5l-101.6-45.4V172h56.2z"/><linearGradient id="d" gradientUnits="userSpaceOnUse" x1="207.409" y1="217.187" x2="197.409" y2="293.189"><stop offset="0" stop-color="#B32025"/><stop offset="1" stop-color="#2C0F0F"/></linearGradient><path opacity=".8" fill="url(#d)" d="M126.5 273.5h147l-101.6-45.4z"/><linearGradient id="e" gradientUnits="userSpaceOnUse" x1="224.855" y1="293.366" x2="217.855" y2="155.366"><stop offset="0" stop-color="#CA2027"/><stop offset="1" stop-color="#650819"/></linearGradient><path fill="url(#e)" d="M228 172l-56.1 56.1 101.6 45.4L228.1 172z"/><linearGradient id="f" gradientUnits="userSpaceOnUse" x1="260.634" y1="265.64" x2="248.633" y2="123.64"><stop offset="0" stop-color="#EE1E3D"/><stop offset="1" stop-color="#922633"/></linearGradient><path fill="url(#f)" d="M228.1 172l45.4 101.5v-147z"/><linearGradient id="g" gradientUnits="userSpaceOnUse" x1="144.218" y1="240.486" x2="170.218" y2="166.486"><stop offset="0" stop-color="#CA2027"/><stop offset="1" stop-color="#650819"/></linearGradient><path fill="url(#g)" d="M171.9 172l-45.4 52.5 45.4 3.6z"/><linearGradient id="h" gradientUnits="userSpaceOnUse" x1="244.117" y1="131.818" x2="188.117" y2="182.818"><stop offset="0" stop-color="#EE1E3D"/><stop offset="1" stop-color="#922633"/></linearGradient><path fill="url(#h)" d="M224.6 126.5L171.9 172h56.2z"/></g><g opacity=".4"><path fill="#8C181B" d="M144.2 206.8L153 247l120.5 26.5L247 153l-40.1-8.8-35 27.8z"/><linearGradient id="i" gradientUnits="userSpaceOnUse" x1="221.918" y1="226.943" x2="166.606" y2="233.547" gradientTransform="translate(-39.55 16.385)"><stop offset="0" stop-color="#B32025"/><stop offset="1" stop-color="#2C0F0F"/></linearGradient><path fill="url(#i)" d="M273.5 273.5L153 247l-8.8-40.2L182 218z"/><linearGradient id="j" gradientUnits="userSpaceOnUse" x1="246.436" y1="192.474" x2="313.046" y2="192.474" gradientTransform="translate(-39.55 16.385)"><stop offset="0" stop-color="#D13C49"/><stop offset="1" stop-color="#D84F56"/></linearGradient><path fill="url(#j)" d="M218 182.1l-11.1-37.9L247 153l26.5 120.5z"/><linearGradient id="k" gradientUnits="userSpaceOnUse" x1="264.375" y1="150.523" x2="261.438" y2="227.847" gradientTransform="translate(-39.55 16.385)"><stop offset="0" stop-color="#DA1F27"/><stop offset="1" stop-color="#650819"/></linearGradient><path fill="url(#k)" d="M273.5 273.5L182 218l-10.1-46 46.1 10.1z"/><linearGradient id="l" gradientUnits="userSpaceOnUse" x1="259.454" y1="193.367" x2="250.985" y2="257.73" gradientTransform="translate(-39.55 16.385)"><stop offset="0" stop-color="#B32025"/><stop offset="1" stop-color="#2C0F0F"/></linearGradient><path opacity=".8" fill="url(#l)" d="M153 247l120.5 26.5L182 218z"/><linearGradient id="m" gradientUnits="userSpaceOnUse" x1="269.637" y1="275.115" x2="263.284" y2="149.869" gradientTransform="translate(-39.55 16.385)"><stop offset="0" stop-color="#CA2027"/><stop offset="1" stop-color="#650819"/></linearGradient><path fill="url(#m)" d="M217.9 182.1L182 218l91.5 55.5-55.5-91.4z"/><linearGradient id="n" gradientUnits="userSpaceOnUse" x1="288.69" y1="251.712" x2="278.672" y2="133.167" gradientTransform="translate(-39.55 16.385)"><stop offset="0" stop-color="#EE1E3D"/><stop offset="1" stop-color="#922633"/></linearGradient><path fill="url(#n)" d="M218 182.1l55.5 91.4L247 153z"/><linearGradient id="o" gradientUnits="userSpaceOnUse" x1="200.336" y1="202.633" x2="217.27" y2="154.437" gradientTransform="translate(-39.55 16.385)"><stop offset="0" stop-color="#CA2027"/><stop offset="1" stop-color="#650819"/></linearGradient><path fill="url(#o)" d="M171.9 172l-27.7 34.8L182 218z"/><linearGradient id="p" gradientUnits="userSpaceOnUse" x1="262.519" y1="135.151" x2="226.658" y2="167.81" gradientTransform="translate(-39.55 16.385)"><stop offset="0" stop-color="#EE1E3D"/><stop offset="1" stop-color="#922633"/></linearGradient><path fill="url(#p)" d="M206.9 144.2l-35 27.8 46.1 10.1z"/></g></svg>